# xmcd CD database file
#
# Track frame offsets:
#	150
#	19447
#	34897
#	52077
#	67421
#	80549
#	97674
#	112714
#	128679
#	146045
#	161620
#	175191
#	190562
#	208177
#	222080
#	235539
#	249607
#	262277
#	281341
#	294230
#	310634
#
# Disc length: 4332 seconds
#
# Revision: 0
# Processed by: cddbd v1.5.2PL0 Copyright (c) Steve Scherf et al.
# Submitted via: CDex 1.51
#
DISCID=2f10ea15
DTITLE=Rod Stewart - The Great American Songbook disc 1
DYEAR=1900
DGENRE=Jazz
TTITLE0=01-You Go To My Head
TTITLE1=02-They Can't Take That Away From Me
TTITLE2=03-The Way You Look Tonight
TTITLE3=04-It Had To Be You
TTITLE4=05-That Old Feeling
TTITLE5=06-These Foolish Things
TTITLE6=07-The Very Thought Of You
TTITLE7=08-Moonglow
TTITLE8=09-I'll Be Seeing You
TTITLE9=10-Every Time We Say Goodbye
TTITLE10=11-The Nearness Of You
TTITLE11=12-For All We Know
TTITLE12=13-We'll Be Together Again
TTITLE13=14-That's All
TTITLE14=01-Time After Time
TTITLE15=02-I'm In The Mood For Love
TTITLE16=03-Don't Get Around Much Anymore
TTITLE17=04-Bewitched, Bothered and Bewildered
TTITLE18=05-'Till There Was You
TTITLE19=06-Until The Real Thing Comes Around
TTITLE20=07-Where Or When
EXTD=
EXTT0=
EXTT1=
EXTT2=
EXTT3=
EXTT4=
EXTT5=
EXTT6=
EXTT7=
EXTT8=
EXTT9=
EXTT10=
EXTT11=
EXTT12=
EXTT13=
EXTT14=
EXTT15=
EXTT16=
EXTT17=
EXTT18=
EXTT19=
EXTT20=
PLAYORDER=
